<?xml version="1.0" encoding="utf-8"?>
<svg width="256" height="256" viewBox="0 0 256 256" fill="none" xmlns="http://www.w3.org/2000/svg">
  <g>
    <g fill="#F6F5F4" fill-rule="evenodd" transform="scale(1 1)">
      <path d="M190.984 0C226.896 0 256 29.1037 256 65.0159C256 65.0159 256 190.984 256 190.984C256 226.896 226.896 256 190.984 256C190.984 256 65.0159 256 65.0159 256C29.1037 256 0 226.896 0 190.984C0 190.984 0 65.0159 0 65.0159C0 29.1037 29.1037 0 65.0159 0C65.0159 0 190.984 0 190.984 0Z" />
      <path d="M256 65.0159C256 29.1037 226.896 0 190.984 0L65.0159 0C29.1037 0 0 29.1037 0 65.0159L0 190.984C0 226.896 29.1037 256 65.0159 256L190.984 256C226.896 256 256 226.896 256 190.984L256 65.0159ZM65.0159 3.00001L190.984 3Q216.676 3 234.838 21.1622Q253 39.3243 253 65.0159L253 190.984Q253 216.676 234.838 234.838Q216.676 253 190.984 253L65.0159 253Q39.3243 253 21.1622 234.838Q3 216.676 3.00001 190.984L3 65.0159Q3 39.3244 21.1622 21.1622Q39.3244 3.00002 65.0159 3.00001Z" fill="#414141" fill-rule="evenodd" />
    </g>
    <path d="M90.1644 19.5523L90.1644 7.71165C90.1644 3.27108 86.5578 -0.365982 82.1348 0.02948C67.1351 1.37047 52.664 6.45282 40.0717 14.8667C25.2443 24.774 13.6877 38.8558 6.86339 55.3312C0.0390663 71.8065 -1.74649 89.9355 1.73252 107.426C5.21155 124.916 13.7989 140.982 26.4086 153.592C39.0183 166.201 55.084 174.788 72.5742 178.267C90.0645 181.746 108.193 179.961 124.669 173.137C141.144 166.312 155.226 154.756 165.133 139.928C173.547 127.336 178.629 112.865 179.97 97.8651C180.366 93.4422 176.729 89.8356 172.289 89.8356L160.448 89.8356C156.007 89.8356 152.461 93.4503 151.889 97.8537C150.659 107.322 147.262 116.418 141.917 124.416C135.078 134.651 125.357 142.63 113.984 147.34C102.61 152.051 90.0953 153.284 78.0214 150.883C65.9475 148.481 54.8569 142.553 46.152 133.848C37.4473 125.143 31.5192 114.052 29.1176 101.979C26.7159 89.9047 27.9485 77.3897 32.6595 66.0163C37.3705 54.6429 45.3484 44.9219 55.5841 38.0826C63.5822 32.7384 72.6783 29.3413 82.1462 28.1112C86.5497 27.5393 90.1644 23.993 90.1644 19.5523L90.1644 19.5523ZM62.9218 98.6752C64.8582 112.271 76.6055 122.727 90.8088 122.727C105.012 122.727 116.759 112.271 118.696 98.6752C119.006 96.4996 120.757 94.7094 122.955 94.7094L133.775 94.7094C135.973 94.7094 137.772 96.494 137.586 98.6836C135.558 122.613 115.39 141.406 90.8088 141.406C66.2276 141.406 46.0589 122.613 44.0314 98.6836C43.8459 96.494 45.6452 94.7094 47.8427 94.7094L58.6628 94.7094C60.8603 94.7094 62.6119 96.4996 62.9218 98.6752L62.9218 98.6752Z" fill="#3FB6DC" fill-rule="evenodd" transform="matrix(1 0 0 1 37 38)" />
    <g fill="#F6F5F4" fill-rule="evenodd" transform="scale(1 1)">
      <path d="M190.984 0C226.896 0 256 29.1037 256 65.0159C256 65.0159 256 190.984 256 190.984C256 226.896 226.896 256 190.984 256C190.984 256 65.0159 256 65.0159 256C29.1037 256 0 226.896 0 190.984C0 190.984 0 65.0159 0 65.0159C0 29.1037 29.1037 0 65.0159 0C65.0159 0 190.984 0 190.984 0Z" />
      <path d="M256 65.0159C256 29.1037 226.896 0 190.984 0L65.0159 0C29.1037 0 0 29.1037 0 65.0159L0 190.984C0 226.896 29.1037 256 65.0159 256L190.984 256C226.896 256 256 226.896 256 190.984L256 65.0159ZM65.0159 8.00001L190.984 8Q214.605 8 231.302 24.6977Q248 41.3954 248 65.0159L248 190.984Q248 214.605 231.302 231.302Q214.605 248 190.984 248L65.0159 248Q41.3954 248 24.6977 231.302Q8 214.605 8.00001 190.984L8 65.0159Q8 41.3955 24.6977 24.6977Q41.3955 8 65.0159 8.00001Z" fill="#414141" fill-rule="evenodd" />
    </g>
    <path d="M90.1644 19.5523L90.1644 7.71165C90.1644 3.27108 86.5578 -0.365982 82.1348 0.02948C67.1351 1.37047 52.664 6.45282 40.0717 14.8667C25.2443 24.774 13.6877 38.8558 6.86339 55.3312C0.0390663 71.8065 -1.74649 89.9355 1.73252 107.426C5.21155 124.916 13.7989 140.982 26.4086 153.592C39.0183 166.201 55.084 174.788 72.5742 178.267C90.0645 181.746 108.193 179.961 124.669 173.137C141.144 166.312 155.226 154.756 165.133 139.928C173.547 127.336 178.629 112.865 179.97 97.8651C180.366 93.4422 176.729 89.8356 172.289 89.8356L160.448 89.8356C156.007 89.8356 152.461 93.4503 151.889 97.8537C150.659 107.322 147.262 116.418 141.917 124.416C135.078 134.651 125.357 142.63 113.984 147.34C102.61 152.051 90.0953 153.284 78.0214 150.883C65.9475 148.481 54.8569 142.553 46.152 133.848C37.4473 125.143 31.5192 114.052 29.1176 101.979C26.7159 89.9047 27.9485 77.3897 32.6595 66.0163C37.3705 54.6429 45.3484 44.9219 55.5841 38.0826C63.5822 32.7384 72.6783 29.3413 82.1462 28.1112C86.5497 27.5393 90.1644 23.993 90.1644 19.5523L90.1644 19.5523ZM62.9217 98.6752C64.8581 112.271 76.6055 122.727 90.8088 122.727C105.012 122.727 116.759 112.271 118.696 98.6752C119.006 96.4996 120.757 94.7094 122.955 94.7094L133.775 94.7094C135.973 94.7094 137.772 96.494 137.586 98.6836C135.558 122.613 115.39 141.406 90.8088 141.406C66.2275 141.406 46.0589 122.613 44.0313 98.6836C43.8458 96.494 45.6452 94.7094 47.8427 94.7094L58.6628 94.7094C60.8603 94.7094 62.6118 96.4996 62.9217 98.6752L62.9217 98.6752Z" fill="#3FB6DC" fill-rule="evenodd" transform="matrix(1 0 0 1 37 38)" />
  </g>
</svg>