<?xml version="1.0" encoding="utf-8"?>
<svg width="930" height="256" viewBox="0 0 930 256" fill="none" xmlns="http://www.w3.org/2000/svg">
  <defs>
    <clipPath id="clip_path_1">
      <rect width="633.475" height="167.47" />
    </clipPath>
  </defs>
  <g>
    <g transform="translate(25 28)">
      <g clip-path="url(#clip_path_1)" transform="translate(242.525 19.764)">
        <path d="M57.2205 56.3354Q56.6711 50.9644 52.6123 48.0042Q48.5535 45.0134 41.687 45.0134Q34.6375 45.0134 30.8533 47.9126Q27.0691 50.7812 27.0691 55.1758Q26.9775 60.0586 31.25 62.561Q35.553 65.0635 41.4734 66.4368L49.6216 68.3899Q57.5256 70.1904 63.6597 73.5779Q69.8242 76.9348 73.3337 82.2449Q76.8738 87.5244 76.8738 95.1233Q76.8433 107.605 67.5354 114.99Q58.2275 122.375 41.5955 122.375Q25.0244 122.375 15.1672 114.838Q5.34058 107.3 4.97437 92.5598L23.5596 92.5598Q24.0479 99.3958 28.9612 102.844Q33.8745 106.262 41.3818 106.262Q48.7061 106.262 53.0701 103.18Q57.4341 100.067 57.4951 95.0928Q57.4341 90.4541 53.4363 87.9822Q49.4385 85.4797 42.0227 83.7097L32.135 81.2378Q20.6299 78.4912 13.9771 72.5098Q7.32422 66.4978 7.35474 56.4575Q7.32422 48.2178 11.7798 42.0227Q16.2354 35.8276 24.0479 32.3792Q31.8604 28.9307 41.8091 28.9307Q51.9409 28.9307 59.5093 32.4097Q67.0776 35.8582 71.2891 42.0532Q75.5005 48.2178 75.6531 56.3354L57.2205 56.3354ZM106.831 122.375Q97.0656 122.375 90.6264 117.279Q84.2177 112.183 84.2177 102.051Q84.2177 94.4214 87.7883 90.0879Q91.3893 85.7239 97.2182 83.7097Q103.078 81.665 109.822 81.0547Q118.703 80.1697 122.517 79.1931Q126.332 78.2166 126.332 74.9207L126.332 74.6765Q126.332 70.4346 123.677 68.1458Q121.052 65.8264 116.2 65.8264Q111.104 65.8264 108.082 68.0542Q105.061 70.282 104.085 73.7L86.5981 72.2656Q88.5512 62.9578 96.3027 57.4951Q104.054 52.0325 116.292 52.0325Q123.891 52.0325 130.482 54.4434Q137.105 56.8237 141.164 61.9202Q145.253 66.9861 145.253 75.1038L145.253 121.094L127.309 121.094L127.309 111.633L126.759 111.633Q124.287 116.394 119.343 119.385Q114.4 122.375 106.831 122.375ZM112.263 109.344Q118.458 109.344 122.456 105.713Q126.454 102.081 126.454 96.7102L126.454 89.4775Q125.355 90.2405 123.006 90.8203Q120.686 91.4001 118.031 91.8274Q115.407 92.2546 113.331 92.5598Q108.357 93.2617 105.305 95.3674Q102.284 97.4426 102.284 101.44Q102.284 105.347 105.092 107.361Q107.899 109.344 112.263 109.344ZM194.606 52.9175L194.606 67.1082L181.056 67.1082L181.056 121.094L162.135 121.094L162.135 67.1082L152.522 67.1082L152.522 52.9175L162.135 52.9175L162.135 47.9736Q162.135 36.8347 168.513 31.3721Q174.891 25.9094 184.535 25.9094Q188.868 25.9094 192.469 26.5808Q196.101 27.2522 197.871 27.8015L194.545 41.9922Q193.446 41.626 191.798 41.3208Q190.15 41.0156 188.472 41.0156Q184.291 41.0156 182.673 42.9688Q181.056 44.8914 181.056 48.3398L181.056 52.9175L194.606 52.9175ZM232.8 122.437Q222.333 122.437 214.734 118.164Q207.165 113.861 203.076 105.988Q198.987 98.114 198.987 87.3108Q198.987 76.7822 203.076 68.8477Q207.165 60.9131 214.581 56.488Q222.027 52.0325 232.068 52.0325Q241.07 52.0325 248.333 55.8472Q255.597 59.6619 259.839 67.3828Q264.111 75.0732 264.111 86.6394L264.111 91.8274L217.663 91.8274L217.663 91.8884Q217.663 99.5178 221.844 103.912Q226.025 108.307 233.136 108.307Q237.866 108.307 241.314 106.323Q244.793 104.309 246.228 100.403L263.714 101.562Q261.7 111.053 253.583 116.76Q245.465 122.437 232.8 122.437ZM217.663 80.1086L246.319 80.1086Q246.258 74.0356 242.383 70.0989Q238.537 66.1316 232.373 66.1316Q226.056 66.1316 222.027 70.2209Q217.999 74.3103 217.663 80.1086Z" transform="translate(29.909 0)" fill="#414141" />
        <path d="M7.90405 121.094L7.90405 30.1819L43.7622 30.1819Q54.1077 30.1819 61.3708 34.1187Q68.6646 38.0554 72.5098 45.0134Q76.355 51.9409 76.355 61.0046Q76.355 70.0378 72.4487 76.9653Q68.5425 83.8623 61.1267 87.738Q53.7415 91.6138 43.2739 91.6138L27.1301 91.6138L27.1301 121.094L7.90405 121.094ZM27.1301 76.2024L40.1611 76.2024Q48.4314 76.2024 52.4902 71.991Q56.5491 67.749 56.5491 61.0046Q56.5491 54.1992 52.4902 50.0488Q48.4314 45.8984 40.0696 45.8984L27.1301 45.8984L27.1301 76.2024ZM116.172 122.437Q105.827 122.437 98.2891 118.011Q90.7818 113.586 86.6924 105.682Q82.6031 97.7478 82.6031 87.2803Q82.6031 76.6907 86.6924 68.7866Q90.7818 60.8521 98.2891 56.4575Q105.827 52.0325 116.172 52.0325Q126.518 52.0325 134.025 56.4575Q141.563 60.8521 145.622 68.7866Q149.711 76.6907 149.711 87.2803Q149.711 97.7478 145.622 105.682Q141.563 113.586 134.025 118.011Q126.518 122.437 116.172 122.437ZM116.264 107.788Q123.252 107.788 126.884 101.929Q130.516 96.0693 130.516 87.1277Q130.516 78.2166 126.884 72.3267Q123.252 66.4368 116.264 66.4368Q109.092 66.4368 105.461 72.3267Q101.829 78.2166 101.829 87.1277Q101.829 96.0693 105.461 101.929Q109.092 107.788 116.264 107.788ZM160.054 121.094L160.054 52.9175L178.975 52.9175L178.975 121.094L160.054 121.094ZM169.576 44.1284Q165.395 44.1284 162.374 41.3208Q159.352 38.4827 159.352 34.5459Q159.352 30.5786 162.374 27.8015Q165.395 24.9939 169.576 24.9939Q173.787 24.9939 176.808 27.8015Q179.83 30.5786 179.83 34.5459Q179.83 38.4827 176.808 41.3208Q173.787 44.1284 169.576 44.1284ZM210.977 81.665L210.977 121.094L192.056 121.094L192.056 52.9175L210.092 52.9175L210.092 64.9414L210.886 64.9414Q213.205 58.9905 218.485 55.5115Q223.795 52.0325 231.393 52.0325Q242.044 52.0325 248.483 58.8989Q254.923 65.7349 254.923 77.6672L254.923 121.094L236.002 121.094L236.002 81.0547Q236.063 74.7986 232.797 71.2891Q229.562 67.749 223.886 67.749Q218.179 67.749 214.578 71.4111Q211.008 75.0732 210.977 81.665ZM304.067 52.9175L304.067 67.1082L291.219 67.1082L291.219 100.128Q291.219 104.034 292.989 105.438Q294.79 106.812 297.628 106.812Q298.94 106.812 300.283 106.567Q301.626 106.323 302.328 106.171L305.288 120.239Q303.884 120.697 301.29 121.277Q298.727 121.887 295.034 122.04Q284.75 122.467 278.493 117.584Q272.268 112.671 272.329 102.631L272.329 67.1082L262.991 67.1082L262.991 52.9175L272.329 52.9175L272.329 36.5906L291.219 36.5906L291.219 52.9175L304.067 52.9175Z" transform="translate(296.811 0)" fill="#3FB6DC" />
      </g>
      <g fill="#F6F5F4" fill-rule="evenodd">
        <path d="M148.219 0C176.09 0 198.676 22.5868 198.676 50.4574C198.676 50.4574 198.676 148.219 198.676 148.219C198.676 176.089 176.09 198.676 148.219 198.676C148.219 198.676 50.4574 198.676 50.4574 198.676C22.5868 198.676 0 176.089 0 148.219C0 148.219 0 50.4574 0 50.4574C0 22.5868 22.5868 0 50.4574 0C50.4574 0 148.219 0 148.219 0Z" />
        <path d="M198.676 50.4574C198.676 22.5868 176.09 0 148.219 0L50.4574 0C22.5868 0 0 22.5868 0 50.4574L0 148.219C0 176.089 22.5868 198.676 50.4574 198.676L148.219 198.676C176.09 198.676 198.676 176.089 198.676 148.219L198.676 50.4574ZM50.4574 5L148.219 5Q167.051 5 180.363 18.3127Q193.676 31.6254 193.676 50.4574L193.676 148.219Q193.676 167.051 180.363 180.363Q167.051 193.676 148.219 193.676L50.4574 193.676Q31.6254 193.676 18.3127 180.363Q5 167.051 5 148.219L5 50.4574Q5 31.6255 18.3127 18.3127Q31.6255 5 50.4574 5Z" fill="#414141" fill-rule="evenodd" />
      </g>
      <path d="M69.82 15.1406L69.82 5.97162C69.82 2.53301 67.0272 -0.283401 63.6022 0.0228271C51.9869 1.06125 40.7811 4.99683 31.0301 11.5122C19.5483 19.1841 10.5992 30.0885 5.31476 42.8464C0.0302486 55.6043 -1.35242 69.6427 1.3416 83.1865C4.03563 96.7304 10.6854 109.171 20.4498 118.936C30.2143 128.7 42.655 135.35 56.1988 138.044C69.7426 140.738 83.7808 139.355 96.539 134.071C109.297 128.786 120.201 119.837 127.873 108.355C134.388 98.6042 138.324 87.3984 139.363 75.7831C139.669 72.3582 136.852 69.5654 133.414 69.5654L124.245 69.5654C120.806 69.5654 118.06 72.3644 117.617 75.7743C116.665 83.106 114.034 90.1497 109.895 96.3429C104.6 104.269 97.0717 110.447 88.265 114.095C79.4576 117.743 69.7665 118.697 60.4169 116.838C51.0673 114.978 42.4791 110.387 35.7384 103.647C28.9978 96.9065 24.4073 88.318 22.5476 78.9684C20.6878 69.6189 21.6423 59.9277 25.2903 51.1206C28.9384 42.3135 35.1161 34.7859 43.0423 29.4897C49.2357 25.3514 56.2794 22.7208 63.611 21.7683C67.0209 21.3254 69.82 18.5793 69.82 15.1406L69.82 15.1406ZM48.7243 76.4104C50.2238 86.9387 59.3205 95.0356 70.319 95.0356C81.3175 95.0356 90.4142 86.9387 91.9137 76.4104C92.1537 74.7257 93.51 73.3394 95.2117 73.3394L103.59 73.3394C105.292 73.3394 106.686 74.7213 106.542 76.4169C104.971 94.947 89.3536 109.5 70.319 109.5C51.2842 109.5 35.6663 94.947 34.0963 76.4169C33.9526 74.7213 35.3459 73.3394 37.0476 73.3394L45.4263 73.3394C47.128 73.3394 48.4843 74.7257 48.7243 76.4104L48.7243 76.4104Z" fill="#3FB6DC" fill-rule="evenodd" transform="translate(29.125 30.165)" />
    </g>
  </g>
</svg>